<svg width="21" height="21" viewBox="0 0 21 21" fill="none" xmlns="http://www.w3.org/2000/svg">
<path d="M8.75 14V13.125H2.63375L2.625 16.625C2.625 17.5962 3.40375 18.375 4.375 18.375H16.625C17.5962 18.375 18.375 17.5962 18.375 16.625V13.125H12.25V14H8.75ZM17.5 6.125H13.9913V4.375L12.2413 2.625H8.74125L6.99125 4.375V6.125H3.5C2.5375 6.125 1.75 6.9125 1.75 7.875V10.5C1.75 11.4712 2.52875 12.25 3.5 12.25H8.75V10.5H12.25V12.25H17.5C18.4625 12.25 19.25 11.4625 19.25 10.5V7.875C19.25 6.9125 18.4625 6.125 17.5 6.125ZM12.25 6.125H8.75V4.375H12.25V6.125Z" fill="#2A91B0"/>
</svg>
