<svg width="20" height="20" viewBox="0 0 20 20" fill="none" xmlns="http://www.w3.org/2000/svg">
<path d="M4.58 2.12502C4.66317 2.1975 4.72004 2.29544 4.74174 2.4036C4.76345 2.51177 4.74877 2.62407 4.7 2.72302C4.69112 2.75219 4.68673 2.78253 4.687 2.81302C4.687 2.87602 4.703 2.99602 4.854 3.14602C4.927 3.21902 4.983 3.27102 5.044 3.32802C5.094 3.37402 5.147 3.42202 5.214 3.48802C5.344 3.61202 5.481 3.75802 5.604 3.94102C5.859 4.32402 6 4.80302 6 5.50002C6 6.97002 5.023 8.00002 4 8.00002C2.977 8.00002 2 6.97002 2 5.50002C2 5.17402 2.087 4.78502 2.207 4.42602C2.327 4.06702 2.495 3.69402 2.689 3.39402C2.92 3.00402 3.245 2.67702 3.497 2.45702C3.63567 2.33613 3.77982 2.22167 3.929 2.11402L3.973 2.08402C4.0647 2.0229 4.17402 1.99378 4.28397 2.00119C4.39392 2.00861 4.49734 2.05214 4.58 2.12502ZM4 9.00002C4.61148 8.99915 5.20428 8.7892 5.68 8.40502C5.72733 8.54569 5.76733 8.68735 5.8 8.83002C6 9.70002 6 10.746 6 11.475V11.5C6 14.287 5.621 15.868 5.204 16.772C4.994 17.227 4.771 17.517 4.578 17.699C4.49943 17.7742 4.41292 17.8406 4.32 17.897C4.27739 17.9226 4.23294 17.945 4.187 17.964C4.187 17.964 4.074 18 4 18C3.926 18 3.813 17.964 3.813 17.964C3.76706 17.945 3.72261 17.9226 3.68 17.897C3.58708 17.8406 3.50057 17.7742 3.422 17.699C3.229 17.516 3.006 17.227 2.796 16.772C2.379 15.868 2 14.287 2 11.5V11.475C2 10.745 2 9.70002 2.2 8.83002C2.23267 8.68735 2.27267 8.54569 2.32 8.40502C2.79572 8.7892 3.38852 8.99915 4 9.00002ZM9 13C8.285 13 7.604 12.85 6.99 12.58C7.00333 12.224 7.01 11.854 7.01 11.47C7.61571 11.8173 8.30178 12.0001 9 12V10C9 9.46959 9.21071 8.96088 9.58579 8.58581C9.96086 8.21073 10.4696 8.00002 11 8.00002H13C13.0001 7.28974 12.8111 6.59225 12.4523 5.97922C12.0936 5.36619 11.5781 4.85974 10.9588 4.51191C10.3395 4.16408 9.63879 3.98743 8.92863 4.0001C8.21846 4.01278 7.52448 4.21432 6.918 4.58402C6.85565 4.24847 6.74163 3.92462 6.58 3.62402C7.34127 3.20297 8.19922 2.98782 9.06908 2.99984C9.93895 3.01186 10.7906 3.25063 11.54 3.69256C12.2893 4.13449 12.9104 4.76428 13.3418 5.51971C13.7732 6.27514 14.0001 7.13007 14 8.00002H16C16.5304 8.00002 17.0391 8.21073 17.4142 8.58581C17.7893 8.96088 18 9.46959 18 10V15C18 15.5305 17.7893 16.0392 17.4142 16.4142C17.0391 16.7893 16.5304 17 16 17H11C10.4696 17 9.96086 16.7893 9.58579 16.4142C9.21071 16.0392 9 15.5305 9 15V13ZM13.9 9.00002C13.7028 9.96037 13.2282 10.8418 12.535 11.535C11.8417 12.2282 10.9603 12.7028 10 12.9V15C10 15.2652 10.1054 15.5196 10.2929 15.7071C10.4804 15.8947 10.7348 16 11 16H16C16.2652 16 16.5196 15.8947 16.7071 15.7071C16.8946 15.5196 17 15.2652 17 15V10C17 9.7348 16.8946 9.48045 16.7071 9.29291C16.5196 9.10538 16.2652 9.00002 16 9.00002H13.9ZM12.874 9.00002H11C10.7348 9.00002 10.4804 9.10538 10.2929 9.29291C10.1054 9.48045 10 9.7348 10 10V11.874C10.6917 11.6945 11.3228 11.3334 11.8281 10.8281C12.3334 10.3228 12.6945 9.69169 12.874 9.00002Z" fill="#BE1400"/>
</svg>
