<svg width="19" height="19" viewBox="0 0 19 19" fill="none" xmlns="http://www.w3.org/2000/svg">
<path fill-rule="evenodd" clip-rule="evenodd" d="M9.23874 4.00659C7.57609 1.94301 4.60567 1.81881 2.79462 3.73714C1.52578 5.08113 1.19591 7.04303 1.80499 8.70835H5.05165L7.12503 4.56312L9.50003 9.31238L10.6875 6.93812L11.5726 8.70835H17.1951C17.8042 7.04306 17.4743 5.08113 16.2055 3.73714C14.3944 1.81884 11.424 1.94301 9.76135 4.00659L9.50006 4.33089L9.23874 4.00659ZM16.2265 10.2917H10.781L9.50003 12.8535L7.12503 8.1035L6.03097 10.2917H2.77366C2.78061 10.2991 2.7876 10.3066 2.79462 10.314L9.49669 17.4131L9.49999 17.4167H9.50003L16.2055 10.314C16.2125 10.3066 16.2195 10.2992 16.2264 10.2917" fill="#F03467"/>
</svg>
