<svg width="21" height="19" viewBox="0 0 21 19" fill="none" xmlns="http://www.w3.org/2000/svg">
<path d="M6.48594 9.5C5.30469 9.53534 4.33854 9.98772 3.5875 10.8571H2.12188C1.52396 10.8571 1.02083 10.714 0.6125 10.4277C0.204167 10.1415 0 9.72266 0 9.17132C0 6.67615 0.452083 5.42857 1.35625 5.42857C1.4 5.42857 1.55859 5.50279 1.83203 5.65123C2.10547 5.79966 2.46094 5.94987 2.89844 6.10184C3.33594 6.25381 3.76979 6.3298 4.2 6.3298C4.68854 6.3298 5.17344 6.24851 5.65469 6.08594C5.61823 6.34747 5.6 6.58073 5.6 6.78571C5.6 7.76823 5.89531 8.67299 6.48594 9.5ZM18.2 16.2539C18.2 17.1021 17.9339 17.7719 17.4016 18.2631C16.8693 18.7544 16.162 19 15.2797 19H5.72031C4.83802 19 4.13073 18.7544 3.59844 18.2631C3.06615 17.7719 2.8 17.1021 2.8 16.2539C2.8 15.8793 2.81276 15.5135 2.83828 15.1565C2.8638 14.7996 2.91484 14.4143 2.99141 14.0008C3.06797 13.5873 3.16458 13.2039 3.28125 12.8504C3.39792 12.497 3.55469 12.1524 3.75156 11.8167C3.94844 11.4809 4.17448 11.1947 4.42969 10.9579C4.6849 10.7211 4.99661 10.532 5.36484 10.3906C5.73307 10.2493 6.13958 10.1786 6.58437 10.1786C6.65729 10.1786 6.81406 10.2546 7.05469 10.4065C7.29531 10.5585 7.56146 10.7281 7.85313 10.9155C8.14479 11.1028 8.5349 11.2724 9.02344 11.4244C9.51198 11.5764 10.0042 11.6523 10.5 11.6523C10.9958 11.6523 11.488 11.5764 11.9766 11.4244C12.4651 11.2724 12.8552 11.1028 13.1469 10.9155C13.4385 10.7281 13.7047 10.5585 13.9453 10.4065C14.1859 10.2546 14.3427 10.1786 14.4156 10.1786C14.8604 10.1786 15.2669 10.2493 15.6352 10.3906C16.0034 10.532 16.3151 10.7211 16.5703 10.9579C16.8255 11.1947 17.0516 11.4809 17.2484 11.8167C17.4453 12.1524 17.6021 12.497 17.7188 12.8504C17.8354 13.2039 17.932 13.5873 18.0086 14.0008C18.0852 14.4143 18.1362 14.7996 18.1617 15.1565C18.1872 15.5135 18.2 15.8793 18.2 16.2539ZM7 2.71429C7 3.46354 6.72656 4.10324 6.17969 4.63337C5.63281 5.1635 4.97292 5.42857 4.2 5.42857C3.42708 5.42857 2.76719 5.1635 2.22031 4.63337C1.67344 4.10324 1.4 3.46354 1.4 2.71429C1.4 1.96503 1.67344 1.32533 2.22031 0.795201C2.76719 0.265067 3.42708 0 4.2 0C4.97292 0 5.63281 0.265067 6.17969 0.795201C6.72656 1.32533 7 1.96503 7 2.71429ZM14.7 6.78571C14.7 7.9096 14.2898 8.86914 13.4695 9.66434C12.6492 10.4595 11.6594 10.8571 10.5 10.8571C9.34062 10.8571 8.35078 10.4595 7.53047 9.66434C6.71016 8.86914 6.3 7.9096 6.3 6.78571C6.3 5.66183 6.71016 4.70229 7.53047 3.90709C8.35078 3.11189 9.34062 2.71429 10.5 2.71429C11.6594 2.71429 12.6492 3.11189 13.4695 3.90709C14.2898 4.70229 14.7 5.66183 14.7 6.78571ZM21 9.17132C21 9.72266 20.7958 10.1415 20.3875 10.4277C19.9792 10.714 19.476 10.8571 18.8781 10.8571H17.4125C16.6615 9.98772 15.6953 9.53534 14.5141 9.5C15.1047 8.67299 15.4 7.76823 15.4 6.78571C15.4 6.58073 15.3818 6.34747 15.3453 6.08594C15.8266 6.24851 16.3115 6.3298 16.8 6.3298C17.2302 6.3298 17.6641 6.25381 18.1016 6.10184C18.5391 5.94987 18.8945 5.79966 19.168 5.65123C19.4414 5.50279 19.6 5.42857 19.6437 5.42857C20.5479 5.42857 21 6.67615 21 9.17132ZM19.6 2.71429C19.6 3.46354 19.3266 4.10324 18.7797 4.63337C18.2328 5.1635 17.5729 5.42857 16.8 5.42857C16.0271 5.42857 15.3672 5.1635 14.8203 4.63337C14.2734 4.10324 14 3.46354 14 2.71429C14 1.96503 14.2734 1.32533 14.8203 0.795201C15.3672 0.265067 16.0271 0 16.8 0C17.5729 0 18.2328 0.265067 18.7797 0.795201C19.3266 1.32533 19.6 1.96503 19.6 2.71429Z" fill="#FF7C46"/>
</svg>
