<svg width="20" height="20" viewBox="0 0 20 20" fill="none" xmlns="http://www.w3.org/2000/svg">
<path d="M11.6667 15.2667C10.7578 14.8274 9.97721 14.1616 9.40004 13.3334H2.50004V3.33335H17.5V5.21669C18.1744 5.69125 18.7421 6.30152 19.1667 7.00835V3.33335C19.1667 2.89133 18.9911 2.4674 18.6786 2.15484C18.366 1.84228 17.9421 1.66669 17.5 1.66669H2.50004C2.05801 1.66669 1.63409 1.84228 1.32153 2.15484C1.00897 2.4674 0.833374 2.89133 0.833374 3.33335V13.3334C0.833374 13.7754 1.00897 14.1993 1.32153 14.5119C1.63409 14.8244 2.05801 15 2.50004 15H8.33337V16.6667H6.66671V18.3334H13.3334V16.6667H11.6667V15.2667Z" fill="#1C56A8"/>
<path d="M14.1666 5C13.1777 5 12.211 5.29324 11.3888 5.84265C10.5665 6.39206 9.92567 7.17295 9.54723 8.08658C9.16879 9.00021 9.06978 10.0055 9.2627 10.9755C9.45563 11.9454 9.93183 12.8363 10.6311 13.5355C11.3304 14.2348 12.2213 14.711 13.1912 14.9039C14.1611 15.0969 15.1664 14.9978 16.08 14.6194C16.9937 14.241 17.7746 13.6001 18.324 12.7779C18.8734 11.9556 19.1666 10.9889 19.1666 10C19.1666 8.67392 18.6398 7.40215 17.7022 6.46447C16.7645 5.52678 15.4927 5 14.1666 5ZM14.1666 11.25C13.9194 11.25 13.6777 11.1767 13.4722 11.0393C13.2666 10.902 13.1064 10.7068 13.0118 10.4784C12.9172 10.2499 12.8924 9.99861 12.9406 9.75614C12.9889 9.51366 13.1079 9.29093 13.2827 9.11612C13.4576 8.9413 13.6803 8.82225 13.9228 8.77402C14.1652 8.72579 14.4166 8.75054 14.645 8.84515C14.8734 8.93976 15.0686 9.09998 15.206 9.30554C15.3433 9.5111 15.4166 9.75277 15.4166 10C15.4166 10.3315 15.2849 10.6495 15.0505 10.8839C14.8161 11.1183 14.4981 11.25 14.1666 11.25Z" fill="#1C56A8"/>
</svg>
