<svg width="18" height="18" viewBox="0 0 18 18" fill="none" xmlns="http://www.w3.org/2000/svg">
<path d="M9 4L5.5 0H0L7 8.5L12.7605 6.125L9 4Z" fill="#8A50FF"/>
<path d="M12.5 0L9 4L11.695 7.656L12.3085 6.9115L18 0H12.5Z" fill="#8A50FF"/>
<path d="M11.6301 8.013C11.6701 7.9045 11.6956 7.789 11.6956 7.6665C11.6956 7.40129 11.5902 7.14693 11.4027 6.9594C11.2151 6.77186 10.9608 6.6665 10.6956 6.6665H7.36206C7.09684 6.6665 6.84249 6.77186 6.65495 6.9594C6.46741 7.14693 6.36206 7.40129 6.36206 7.6665C6.36206 7.789 6.38706 7.9045 6.42756 8.013C4.79856 8.926 3.69556 10.6665 3.69556 12.6665C3.69556 15.612 6.08306 18 9.02906 18C11.9751 18 14.3626 15.612 14.3626 12.6665C14.3621 10.6665 13.2596 8.926 11.6301 8.013Z" fill="#8A50FF"/>
<path d="M9.02905 16.6665C11.2382 16.6665 13.0291 14.8756 13.0291 12.6665C13.0291 10.4574 11.2382 8.6665 9.02905 8.6665C6.81991 8.6665 5.02905 10.4574 5.02905 12.6665C5.02905 14.8756 6.81991 16.6665 9.02905 16.6665Z" fill="#D0B8FF"/>
<path d="M10.639 15.317C10.5661 15.3168 10.4952 15.2939 10.436 15.2515L8.99997 14.222L7.56447 15.2515C7.50499 15.2942 7.43356 15.3171 7.36033 15.317C7.28709 15.3168 7.21576 15.2936 7.15648 15.2506C7.0972 15.2076 7.05297 15.147 7.03009 15.0774C7.0072 15.0078 7.00681 14.9328 7.02897 14.863L7.56447 13.135L6.14197 12.1325C6.08316 12.089 6.03952 12.0281 6.01722 11.9584C5.99492 11.8887 5.99508 11.8137 6.01769 11.7442C6.04029 11.6746 6.0842 11.6138 6.1432 11.5706C6.2022 11.5273 6.27331 11.5037 6.34647 11.503L8.10847 11.5005L8.66947 9.8155C8.69243 9.74583 8.73678 9.68518 8.79621 9.64219C8.85564 9.59919 8.92712 9.57605 9.00047 9.57605C9.07383 9.57605 9.14531 9.59919 9.20474 9.64219C9.26417 9.68518 9.30852 9.74583 9.33147 9.8155L9.88297 11.5005L11.654 11.503C11.7273 11.5033 11.7986 11.5268 11.8579 11.57C11.9171 11.6133 11.9611 11.6741 11.9838 11.7438C12.0064 11.8136 12.0065 11.8887 11.984 11.9584C11.9615 12.0282 11.9176 12.0891 11.8585 12.1325L10.4355 13.135L10.971 14.863C10.9878 14.9152 10.992 14.9707 10.9833 15.0249C10.9745 15.079 10.9531 15.1303 10.9207 15.1746C10.8883 15.2189 10.8459 15.2549 10.7969 15.2796C10.748 15.3044 10.6938 15.3172 10.639 15.317Z" fill="#8A50FF"/>
</svg>
