<svg width="18" height="14" viewBox="0 0 18 14" fill="none" xmlns="http://www.w3.org/2000/svg">
<path d="M17.9722 0.574809C17.9636 0.432095 17.9014 0.29741 17.7974 0.196324C17.6934 0.0952378 17.5549 0.0347893 17.4081 0.026455C13.5254 -0.192303 10.4079 0.955448 9.06822 3.10511C8.18307 4.52631 8.18458 6.25231 9.05622 7.89883C8.56001 8.47292 8.19741 9.14455 7.99329 9.86766L6.77285 8.67688C7.35944 7.48611 7.33694 6.24502 6.69783 5.21394C5.70767 3.62503 3.42205 2.77333 0.58434 2.93521C0.43753 2.94354 0.298979 3.00399 0.194992 3.10508C0.0910049 3.20616 0.0288217 3.34085 0.0202482 3.48356C-0.147029 6.2421 0.729864 8.46396 2.36438 9.42649C2.90373 9.74691 3.52357 9.91647 4.15567 9.91651C4.76919 9.90912 5.37316 9.76782 5.92296 9.50306L7.79826 11.326V13.4166C7.79826 13.5714 7.86149 13.7197 7.97403 13.8291C8.08657 13.9385 8.2392 14 8.39836 14C8.55752 14 8.71015 13.9385 8.82269 13.8291C8.93523 13.7197 8.99846 13.5714 8.99846 13.4166V11.2663C8.99573 10.3382 9.32061 9.43732 9.91886 8.71407C10.6907 9.10621 11.5467 9.31605 12.4175 9.3266C13.2594 9.32924 14.0857 9.10565 14.8052 8.68053C17.0165 7.37965 18.2002 4.34912 17.9722 0.574809ZM2.98323 8.42896C1.83254 7.75154 1.18144 6.14804 1.19719 4.08296C3.32154 4.06546 4.97105 4.70059 5.66792 5.81917C6.03173 6.40253 6.09099 7.08287 5.85245 7.78362L4.0214 6.00366C3.90794 5.89888 3.75687 5.84132 3.60039 5.84327C3.4439 5.84522 3.29439 5.90651 3.18374 6.01408C3.07308 6.12165 3.01002 6.26699 3.00802 6.41911C3.00602 6.57123 3.06522 6.71809 3.17301 6.82838L5.00406 8.60834C4.28319 8.84022 3.58408 8.78262 2.98323 8.42896ZM14.1833 7.68372C13.1781 8.2751 11.9967 8.32031 10.7965 7.82956L14.8239 3.91379C14.9317 3.8035 14.9909 3.65664 14.9889 3.50452C14.9869 3.35241 14.9238 3.20707 14.8132 3.09949C14.7025 2.99192 14.553 2.93063 14.3965 2.92868C14.24 2.92673 14.089 2.98429 13.9755 3.08907L9.94736 6.99974C9.44028 5.83303 9.48604 4.68382 10.0974 3.70743C11.1431 2.03028 13.623 1.09545 16.7982 1.16764C16.8702 4.25359 15.9101 6.66722 14.1833 7.68372Z" fill="#008E1B"/>
</svg>
